<svg xmlns="http://www.w3.org/2000/svg" id="prefix__ispolink_logo_blue_svg" width="155.032" height="39.683" viewBox="0 0 155.032 39.683">
    <defs>
        <style>
            .prefix__cls-1{fill:#00e}
        </style>
    </defs>
    <g id="prefix__Gruppe_20439" data-name="Gruppe 20439" transform="translate(41.146 6.182)">
        <g id="prefix__Gruppe_20438" data-name="Gruppe 20438" transform="translate(62.129 .135)">
            <path id="prefix__Pfad_53858" d="M649.571 175.5h-1.629a1.613 1.613 0 0 1-1.613-1.613v-18.48a.807.807 0 0 0-.807-.807h-2.4a.807.807 0 0 0-.807.807v19.266a4.837 4.837 0 0 0 4.837 4.837h2.414z" class="prefix__cls-1" data-name="Pfad 53858" transform="translate(-642.32 -154.6)"/>
        </g>
        <path id="prefix__Pfad_53859" d="M368.188 206.4a1.682 1.682 0 0 1 2.29-.6 8.963 8.963 0 0 0 4.279 1.3c1.849 0 2.724-.661 2.724-1.706 0-1.184-1.412-1.6-3.262-1.985-2.791-.556-6.389-1.254-6.389-5.258 0-2.821 2.388-5.294 6.657-5.294a10.255 10.255 0 0 1 5.139 1.323 1.7 1.7 0 0 1 .658 2.32 1.68 1.68 0 0 1-2.279.652 7.176 7.176 0 0 0-3.484-.916c-1.548 0-2.555.592-2.555 1.567 0 1.045 1.277 1.428 3.093 1.812 2.791.556 6.524 1.323 6.524 5.5 0 3.065-2.521 5.4-7.028 5.4a11.452 11.452 0 0 1-5.908-1.577 1.7 1.7 0 0 1-.586-2.324z" class="prefix__cls-1" data-name="Pfad 53859" transform="translate(-360.223 -185.124)"/>
        <path id="prefix__Pfad_53860" d="M450.41 215.64v-21.409a.962.962 0 0 1 .962-.961h2.346a.962.962 0 0 1 .961.961v1.162a6.2 6.2 0 0 1 5.01-2.543c4.17 0 7.2 3.2 7.2 8.81s-3.026 8.846-7.2 8.846a6.134 6.134 0 0 1-5.01-2.577v7.71a.857.857 0 0 1-.858.858h-2.553a.856.856 0 0 1-.858-.857zm7.936-18.852a4.732 4.732 0 0 0-3.665 1.915v5.956a4.835 4.835 0 0 0 3.665 1.915c2.455 0 4.1-1.985 4.1-4.911.002-2.891-1.646-4.876-4.1-4.876z" class="prefix__cls-1" data-name="Pfad 53860" transform="translate(-426.405 -185.116)"/>
        <path id="prefix__Pfad_53861" d="M543.22 201.67c0-4.772 3.228-8.81 8.574-8.81 5.38 0 8.608 4.041 8.608 8.81 0 4.805-3.228 8.846-8.608 8.846-5.346 0-8.574-4.038-8.574-8.846zm12.744 0c0-2.612-1.514-4.875-4.17-4.875s-4.136 2.263-4.136 4.875c0 2.646 1.48 4.911 4.136 4.911s4.17-2.263 4.17-4.911z" class="prefix__cls-1" data-name="Pfad 53861" transform="translate(-500.777 -185.124)"/>
        <path id="prefix__Pfad_53862" d="M329.57 156.566a2.557 2.557 0 1 1 2.557 2.646 2.624 2.624 0 0 1-2.557-2.646zm2.573 5.507a2.135 2.135 0 0 1 2.136 2.136v13.826a.858.858 0 0 1-.858.858h-2.553a.858.858 0 0 1-.858-.858v-13.827a2.132 2.132 0 0 1 2.133-2.135z" class="prefix__cls-1" data-name="Pfad 53862" transform="translate(-329.57 -153.92)"/>
        <path id="prefix__Pfad_53863" d="M688.47 156.566a2.557 2.557 0 1 1 2.557 2.646 2.623 2.623 0 0 1-2.557-2.646zm2.573 5.507a2.135 2.135 0 0 1 2.136 2.136v13.826a.858.858 0 0 1-.858.858h-3.411v-14.687a2.131 2.131 0 0 1 2.133-2.133z" class="prefix__cls-1" data-name="Pfad 53863" transform="translate(-617.173 -153.92)"/>
        <path id="prefix__Pfad_53864" d="M739.89 201.781c0-2.334-1.18-3.341-3-3.341a4.748 4.748 0 0 0-3.7 2.191v10.241a.858.858 0 0 1-.858.858h-2.553a.858.858 0 0 1-.858-.858v-15.2a.858.858 0 0 1 .858-.858h2.553a.858.858 0 0 1 .858.858v1.428a7.18 7.18 0 0 1 5.684-2.243c3.564 0 5.28 2.09 5.28 5.364v10.648a.858.858 0 0 1-.858.858h-2.553a.858.858 0 0 1-.858-.858v-9.09z" class="prefix__cls-1" data-name="Pfad 53864" transform="translate(-649.595 -186.687)"/>
        <path id="prefix__Pfad_53865" d="M827.049 155.408a.858.858 0 0 0-.858-.858h-2.553a.858.858 0 0 0-.858.858v23.2a.858.858 0 0 0 .858.858h2.553a.857.857 0 0 0 .858-.858v-23.2z" class="prefix__cls-1" data-name="Pfad 53865" transform="translate(-724.802 -154.425)"/>
        <path id="prefix__Pfad_53866" d="M860.786 210.387l-5.644-7.448 5.622-6.7a.859.859 0 0 0-.658-1.412h-2.994a.859.859 0 0 0-.664.314l-5.475 6.669a1.715 1.715 0 0 0-.1 2.046l5.288 7.5a.855.855 0 0 0 .715.383h3.208a.857.857 0 0 0 .702-1.352z" class="prefix__cls-1" data-name="Pfad 53866" transform="translate(-747.082 -186.703)"/>
    </g>
    <g id="prefix__Gruppe_20441" data-name="Gruppe 20441">
        <g id="prefix__Gruppe_20440" data-name="Gruppe 20440">
            <path id="prefix__Pfad_53867" d="M124.423 135.748a1.959 1.959 0 0 0 1.4-.578l6.218-6.218a7.514 7.514 0 0 1 10.626 10.626l-3.353 3.353a1.978 1.978 0 0 0 2.8 2.8l3.353-3.353a11.469 11.469 0 0 0-16.22-16.22l-6.218 6.218a1.978 1.978 0 0 0 0 2.8 1.957 1.957 0 0 0 1.394.572z" class="prefix__cls-1" data-name="Pfad 53867" transform="translate(-122.445 -122.8)"/>
            <path id="prefix__Pfad_53868" d="M147.106 214.92a1.959 1.959 0 0 0-1.4.578l-6.087 6.087A7.514 7.514 0 0 1 129 210.958l3.353-3.353a1.978 1.978 0 0 0-2.8-2.8l-3.353 3.353a11.469 11.469 0 0 0 16.22 16.22l6.087-6.087a1.979 1.979 0 0 0-1.4-3.375z" class="prefix__cls-1" data-name="Pfad 53868" transform="translate(-122.77 -188.054)"/>
        </g>
        <circle id="prefix__Ellipse_1346" cx="2.867" cy="2.867" r="2.867" class="prefix__cls-1" data-name="Ellipse 1346" transform="translate(12.091 8.516)"/>
        <circle id="prefix__Ellipse_1347" cx="2.867" cy="2.867" r="2.867" class="prefix__cls-1" data-name="Ellipse 1347" transform="translate(8.561 25.422)"/>
    </g>
</svg>
